<?xml version="1.0" standalone="no"?>
<!DOCTYPE svg PUBLIC "-//W3C//DTD SVG 20010904//EN"
 "http://www.w3.org/TR/2001/REC-SVG-20010904/DTD/svg10.dtd">
<svg version="1.0" xmlns="http://www.w3.org/2000/svg"
 width="1024.000000pt" height="1024.000000pt" viewBox="0 0 1024.000000 1024.000000"
 preserveAspectRatio="xMidYMid meet">
<metadata>
Created by potrace 1.14, written by Peter Selinger 2001-2017
</metadata>
<g transform="translate(0.000000,1024.000000) scale(0.100000,-0.100000)"
fill="#000000" stroke="none">
<path d="M0 5120 l0 -5120 5120 0 5120 0 0 5120 0 5120 -5120 0 -5120 0 0
-5120z m6760 2075 l0 -875 -113 0 -114 0 -28 98 c-140 476 -459 944 -795 1167
-337 225 -771 279 -1130 143 -175 -67 -347 -236 -417 -410 -58 -143 -67 -342
-24 -511 80 -310 247 -431 1351 -981 539 -269 659 -333 795 -430 466 -329 705
-776 705 -1316 0 -233 -51 -451 -155 -665 -98 -203 -186 -330 -349 -505 -263
-281 -633 -440 -1156 -496 -181 -20 -583 -14 -735 10 -218 35 -384 78 -570
147 -211 79 -257 91 -350 96 -80 4 -95 2 -135 -19 -50 -26 -84 -78 -121 -186
l-21 -62 -114 0 -114 0 0 990 0 990 114 0 114 0 32 -133 c168 -689 471 -1154
910 -1397 316 -175 713 -225 1060 -134 194 51 334 140 438 281 132 179 191
348 192 545 0 296 -117 509 -375 684 -131 89 -236 145 -670 362 -575 287 -727
370 -960 525 -291 194 -480 375 -604 582 -115 190 -170 370 -191 620 -35 417
88 811 366 1170 230 298 514 462 931 536 151 27 492 37 668 19 229 -23 375
-56 750 -170 243 -74 286 -83 344 -78 106 10 158 61 206 200 l27 78 119 0 119
0 0 -875z"/>
</g>
</svg>
